{"title":"Cary Grant_The Talk Of The Town_1942_by drTucker","uid":5056411,"size":781629811,"categoryP":"video","categoryS":"movies","magnet":"?xt=urn:btih:377151e9030ff5840f870b378197f9068dcee613&amp;dn=Cary+Grant_The+Talk+Of+The+Town_1942_by+drTucker&amp;tr=udp%3A%2F%2Ftracker.openbittorrent.com%3A80&amp;tr=udp%3A%2F%2Fopen.demonii.com%3A1337&amp;tr=udp%3A%2F%2Ftracker.coppersurfer.tk%3A6969&amp;tr=udp%3A%2F%2Fexodus.desync.com%3A6969","seeders":1,"leechers":2,"uploader":"drtucker","files":2,"time":1250445561,"description":"IMDB link :- http://www.imdb.com/title/tt0035417\n\nFile size                        : 745 MiB\nDuration                         : 1h 52min\n\nVideo:-\nCodec ID                         : XVID\nBit rate                         : 854 Kbps\nDisplay aspect ratio             : 4/3\nFrame Size                       : 512*392 pixels\nFrame rate                       : 25 fps\nStream size                      : 686 MiB (92%)\n\nAudio:-\nFormat                           : MPEG Layer 3\nNominal bit rate                 : 64.0 Kbps\nChannel(s)                       : 1 channel\nSampling rate                    : 48.0 KHz\nStream size                      : 48.6 MiB (7%)\n\nSubtitles                        : English SRT File","torrent":{"xt":"urn:btih:377151e9030ff5840f870b378197f9068dcee613","amp;dn":"Cary+Grant_The+Talk+Of+The+Town_1942_by+drTucker","amp;tr":["udp%3A%2F%2Ftracker.openbittorrent.com%3A80","udp%3A%2F%2Fopen.demonii.com%3A1337","udp%3A%2F%2Ftracker.coppersurfer.tk%3A6969","udp%3A%2F%2Fexodus.desync.com%3A6969"],"infoHash":"377151e9030ff5840f870b378197f9068dcee613","infoHashBuffer":{"type":"Buffer","data":[55,113,81,233,3,15,245,132,15,135,11,55,129,151,249,6,141,206,230,19]},"announce":[],"urlList":[]}}